# xmcd
#
# Track frame offsets:
#	150
#	11497
#	28107
#	46597
#	64925
#	75225
#	88912
#	105500
#	122225
#	134047
#
# Disc length: 1986
#
# Revision: 3
# Processed by: cddbd v1.5.1PL0 Copyright (c) Steve Scherf et al.
# Submitted via: DiscPlay 4.0.3
# Normalized: r1:TDELIM( - ),TSWAP
#
DISCID=7c07c00a
DTITLE=Volume 5 - Truckers Jukebox
DYEAR=1900
DGENRE=
TTITLE0=Red Steagall - Track 1  Truck Driving Man
TTITLE1=Willie Nelson - Track 2  Stand By Me
TTITLE2=Boxcar Willie - Track 3  Song Of Songs
TTITLE3=Lionel Cartwright - Track 4  Leap Of Faith
TTITLE4=Billy Crash Craddock - Track 5  Rub It In
TTITLE5=Patsy Cline - Track 6  So Wrong
TTITLE6=Mark Chesnutt - Track 7  Too Cold At Home
TTITLE7=Don Williams - Track 8  Love Is On A Roll
TTITLE8=Brenda Lee - Track 9  Break It To Me Gently
TTITLE9=McBride And The Ride - Track 10  Sacred Ground
EXTD=
EXTT0=
EXTT1=
EXTT2=
EXTT3=
EXTT4=
EXTT5=
EXTT6=
EXTT7=
EXTT8=
EXTT9=
PLAYORDER=
